<svg width="130" height="428" viewBox="0 0 130 428" fill="none" xmlns="http://www.w3.org/2000/svg">
<mask id="path-1-outside-1" maskUnits="userSpaceOnUse" x="0.76709" y="0.799042" width="129" height="427" fill="black">
<rect fill="white" x="0.76709" y="0.799042" width="129" height="427"/>
<path d="M128.216 95.088C130.232 80.688 125.48 68.16 117.704 57.36C124.472 46.704 129.512 31.152 125.048 18.336C122.744 11.424 117.128 4.944 109.784 2.928C102.728 1.2 94.088 1.056 88.04 5.376C84.728 7.824 82.136 11.712 82.136 15.744C82.28 19.632 84.44 22.512 87.32 24.528C91.496 27.552 96.968 28.704 99.992 28.128C98.408 27.12 95.816 25.248 94.664 23.52C93.368 21.648 94.088 19.632 95.816 18.192C97.976 16.608 102.44 17.76 104.456 19.2C107.624 21.216 108.056 23.232 108.2 26.688C108.776 36.624 105.032 46.128 100.136 53.616V34.032C100.136 33.024 99.56 32.016 98.552 31.872C92.792 30.864 87.32 29.136 84.152 26.4C83.144 25.536 81.704 26.256 81.704 27.552V124.464C81.704 125.904 83 126.912 84.008 126.912H98.264C99.416 126.912 100.136 125.616 100.136 124.464V113.664C108.92 115.536 115.688 114.24 120.872 109.92C124.76 106.608 127.352 101.712 128.216 95.088ZM81.704 23.088C82.28 22.08 81.272 20.64 79.976 20.64H71.048C70.328 20.64 69.032 21.216 68.6 21.936C67.448 23.808 66.008 25.68 64.856 27.12C63.848 25.968 62.84 23.52 62.264 22.08C67.304 16.896 72.2 10.848 74.936 5.232C75.512 4.224 74.648 2.352 72.92 2.352H64.856C63.992 2.352 62.696 2.496 61.976 3.648C60.968 5.52001 59.528 7.968 58.088 9.55201C57.368 8.11201 56.792 5.952 56.504 4.656C56.36 3.648 55.064 2.352 54.056 2.352H42.392C40.664 2.352 39.656 3.936 40.088 5.088C41.96 14.16 46.424 26.4 49.88 35.04H33.752C36.056 29.568 38.504 22.08 39.08 16.464C39.368 13.44 38.504 10.56 36.92 8.4C34.904 5.808 31.88 4.08 27.848 4.08H12.872C9.99201 4.08 7.97601 5.232 6.82401 6.96C5.09601 9.264 4.95201 12.576 6.39201 15.168C7.68801 17.328 10.136 19.056 13.88 19.2C12.872 18.768 12.008 18.048 11.72 17.472C11.288 16.896 11.576 16.464 12.152 16.464H21.512C22.232 16.464 22.52 17.472 22.52 18.048C21.944 20.784 21.08 23.808 19.928 26.544C19.208 25.392 18.344 23.664 17.768 22.224C17.336 21.36 16.616 20.64 15.32 20.496H5.24001C3.94401 20.64 3.08001 21.936 3.51201 22.944C5.67201 29.136 8.69601 34.608 13.16 39.936C10.28 44.4 7.40001 48.288 3.51201 52.464C2.79201 53.328 3.22401 54.768 4.37601 54.768H18.92C20.216 55.056 21.656 54.624 22.664 53.76C24.248 52.176 25.544 50.16 26.984 47.712H56.216C57.224 49.44 59.24 52.32 60.104 53.472C60.68 54.336 61.976 54.768 62.696 54.768H77.384C79.256 54.768 79.544 52.608 78.968 52.032C75.944 48.144 72.776 43.536 70.184 38.928C74.936 34.032 78.824 28.704 81.704 23.088ZM77.096 74.352C77.096 70.176 75.224 66.144 72.2 63.12C69.032 59.952 64.568 57.792 59.816 57.792H36.92C33.896 57.792 31.736 59.232 30.584 61.248C29.144 63.84 29.288 67.296 30.872 70.032C32.168 72.48 34.616 74.496 38.072 74.64C37.208 73.776 36.632 72.912 36.488 72.192C36.344 71.328 36.632 70.608 37.784 70.464H52.904C55.928 70.464 57.368 72.336 57.512 74.496C57.8 76.944 56.36 79.536 53.48 79.536H31.88C29.144 79.536 26.984 77.376 26.984 75.216V59.952C26.984 58.656 25.976 57.792 24.824 57.792H10.712C9.41601 57.792 8.40801 58.944 8.40801 59.952V77.088C8.40801 82.272 10.136 85.872 12.584 88.176C15.608 90.912 19.784 91.92 23.816 91.92H57.656C64.568 91.92 70.04 89.76 73.352 85.728C75.8 82.848 77.096 78.96 77.096 74.352ZM78.968 117.984V110.064C78.968 108.624 77.816 107.328 76.232 107.616C73.928 108.048 70.76 108.48 67.304 108.912C68.888 105.024 70.328 101.136 71.336 97.68C71.48 96.96 71.192 95.808 69.896 95.808H54.488C53.624 95.808 52.616 96.24 52.184 97.248C50.744 102.288 48.728 106.896 46.28 111.792C44.12 112.08 41.96 112.368 40.232 112.368C37.496 107.904 35.336 102.144 34.184 97.536C33.896 96.528 33.32 95.808 31.736 95.808H16.04C14.888 95.808 14.168 97.392 14.6 98.544C16.328 103.728 18.488 109.056 20.792 113.664C16.04 114.24 10.568 114.384 5.81601 114.384C5.09601 114.384 3.80001 115.824 3.80001 116.4V125.04C3.80001 126.192 4.80801 127.344 5.81601 127.344C28.568 126.624 56.936 123.6 77.528 120.432C78.392 120.288 78.968 119.136 78.968 117.984ZM109.064 91.2C108.488 93.792 107.336 95.52 105.608 96.384C104.168 97.104 102.296 97.104 100.136 96.24V61.392C105.608 69.168 111.368 81.12 109.064 91.2Z"/>
<path d="M126.92 161.568V153.792C126.92 153.216 126.056 152.496 125.336 152.496H69.608C68.888 152.496 68.024 153.072 68.024 153.792V162C68.024 162.72 68.888 163.44 69.464 163.44H125.048C126.2 163.44 126.92 162.576 126.92 161.568ZM125.192 190.656V177.264C125.192 174.816 123.896 171.648 121.88 169.632C120.008 167.76 117.272 166.608 114.392 166.608H98.264C94.52 166.608 92.216 167.76 91.064 169.488C89.48 171.504 89.624 174.384 90.776 176.544C91.928 178.704 94.088 180.288 96.824 180.288C95.096 178.56 96.248 177.12 97.832 177.12H104.888C105.896 177.12 107.48 178.272 107.48 179.712V190.8C107.48 191.808 108.2 192.672 108.92 192.672H122.888C124.04 192.672 125.192 191.664 125.192 190.656ZM104.888 190.08C103.88 187.344 103.016 184.896 102.44 183.024C102.152 182.16 101.72 181.728 101 181.728H90.632C90.056 181.728 89.624 182.448 89.624 182.88C90.056 184.896 91.208 188.496 92.36 190.944C92.648 191.376 93.224 191.664 93.8 191.664H103.88C104.744 191.664 105.176 190.8 104.888 190.08ZM62.552 161.424V154.224C62.552 153.36 61.832 152.496 60.824 152.496H6.10401C5.09601 152.496 4.08801 153.216 4.08801 154.224V161.568C4.08801 162.72 4.80801 163.44 5.67201 163.44H60.392C61.544 163.44 62.552 162.432 62.552 161.424ZM41.816 190.512C41.096 188.064 40.088 185.184 39.512 183.168C39.224 182.16 38.504 181.728 37.784 181.728H28.28C27.56 181.728 26.984 182.736 27.128 183.456C27.704 185.616 28.424 187.92 29.72 190.368C30.008 191.232 30.872 191.664 31.448 191.664H40.664C41.528 191.664 42.104 191.232 41.816 190.512ZM127.784 206.496V198.864C127.784 198.144 127.208 197.568 126.344 197.568H76.952C76.376 195.984 75.368 193.824 74.648 192.672H85.592C86.456 192.672 87.176 191.664 87.176 190.512V168.336C87.176 167.616 86.312 166.608 85.592 166.608H71.48C70.76 166.608 70.04 167.184 70.04 168.048V189.072C68.024 188.064 63.272 187.632 61.112 188.64V177.696C61.112 173.952 59.672 171.072 57.224 169.2C55.064 167.472 51.896 166.608 48.296 166.608H34.76C30.872 166.608 28.568 167.904 27.56 169.776C26.264 171.792 26.552 174.528 27.704 176.688C28.856 179.136 31.304 181.008 33.752 180.432C32.168 178.848 32.888 177.12 34.184 177.12H41.816C42.824 177.12 43.544 177.984 43.544 179.28V191.232C43.544 192.384 44.264 192.672 45.128 192.672H51.32L48.44 195.264C49.736 194.832 51.32 194.688 52.616 194.976C53.912 195.408 55.064 196.128 55.496 197.568H38.792C35.912 197.568 33.608 198.864 32.312 200.736C30.584 203.04 30.44 206.064 31.448 208.512C32.456 210.528 34.328 212.4 37.352 212.688C36.2 211.824 35.912 210.528 36.2 209.52C36.488 208.656 37.352 208.08 38.504 208.08H43.832V214.416H28.28V199.44C28.28 198.288 27.416 197.568 26.552 197.568H10.28C9.70401 197.568 8.84001 198.288 8.84001 198.864V241.056C8.84001 252.72 7.11201 263.376 3.51201 274.464C2.93601 275.904 3.65601 276.768 4.80801 276.768H21.656C22.808 276.768 23.816 276.192 23.96 275.328C26.984 266.112 28.136 253.44 28.568 242.64H34.472V263.52C34.472 266.976 35.336 269.856 37.064 272.16C39.08 275.04 42.536 276.768 46.136 276.768H64.28C67.736 276.768 70.76 275.328 72.344 272.88C74.216 270.288 74.072 266.4 72.344 263.808C70.328 260.784 66.584 258.912 62.552 259.344C64.424 260.352 65.576 262.08 65.576 263.376C65.432 264.816 64.28 265.824 62.12 265.824H56.792C54.776 265.824 53.624 263.952 53.624 262.08V258.336H70.328C71.048 258.336 71.768 257.76 71.768 256.896V249.552C71.768 248.4 71.336 247.824 70.472 247.824H53.624V242.64H76.088V263.232C76.088 266.832 77.096 269.712 78.536 271.872C80.984 275.184 84.872 276.768 88.328 276.768H115.544C120.584 276.768 123.752 275.328 125.768 273.312C128.648 270.288 128.216 265.536 126.2 262.08C124.328 259.056 121.016 256.896 117.272 256.752C119.432 258.624 120.296 260.64 120.008 262.368C119.864 264.384 118.28 265.824 115.544 265.824H98.984C96.68 265.824 95.096 263.808 95.096 262.08V259.776H111.368C112.376 259.776 113.528 259.488 114.104 258.912C116.984 255.6 119.72 251.568 122.024 247.536C122.6 246.384 122.024 245.232 120.872 245.232H104.312C103.304 245.232 103.016 245.664 102.44 246.096C100.568 249.264 97.688 253.008 95.096 255.744V242.64H110.504C114.968 242.64 118.424 241.632 121.016 239.76C124.616 237.312 126.488 233.712 126.776 229.824C127.064 225.792 125.624 221.616 122.456 218.736C120.008 216.432 116.408 214.416 111.8 214.416H93.944V208.08H126.344C127.208 208.08 127.784 207.36 127.784 206.496ZM24.104 191.232V167.904C24.104 167.328 23.528 166.608 22.952 166.608H7.83201C6.82401 166.608 6.24801 167.04 6.24801 167.904V191.232C6.24801 192.096 6.82401 192.672 7.54401 192.672H22.952C23.528 192.672 24.104 191.952 24.104 191.232ZM107.048 230.4C106.472 231.408 105.176 231.84 103.736 231.84H93.944V225.216H103.304C104.888 225.216 106.328 225.504 106.904 226.224C107.912 227.376 108.056 229.104 107.048 230.4ZM75.512 214.416H61.976V208.08H75.512V214.416ZM75.512 231.84H61.976V225.216H75.512V231.84ZM43.688 231.84H28.28V225.216H43.688V231.84Z"/>
<path d="M127.064 339.792V330.72C127.064 329.424 126.056 328.704 124.904 328.704H118.712V320.496C118.712 315.456 117.272 310.704 113.672 307.536C111.08 305.232 107.192 303.792 101.864 303.792H20.36C16.904 303.792 14.6 305.088 13.16 307.104C11.576 309.264 11.288 312.432 12.008 315.456C12.872 318.48 14.744 321.504 17.624 323.664C16.472 322.08 16.328 320.208 17.048 318.768C17.48 317.616 18.488 316.752 19.928 316.752H49.016C49.016 320.064 48.44 325.536 47.864 328.704H5.52801C4.52001 328.704 3.51201 329.568 3.51201 330.576V339.504C3.51201 340.8 4.52001 341.808 5.52801 341.808H45.128C43.976 345.984 41.528 350.592 39.08 354.336H13.592C12.44 354.336 11.576 355.2 11.576 356.064V364.992C11.576 366.288 12.584 367.008 13.592 367.008H30.152C21.656 376.8 12.152 384.72 2.21601 392.64C1.06401 393.504 2.36001 395.808 3.51201 395.808H19.496V408.48C19.496 413.808 20.936 417.84 23.096 420.72C26.264 424.896 31.16 426.768 35.912 426.768H103.592C109.496 426.768 114.536 424.896 117.992 421.584C121.016 418.56 122.744 414.384 122.744 409.344V396.96C122.744 390.912 121.448 385.728 117.992 382.272C114.968 379.104 110.216 377.232 103.448 377.232H53.912C50.6 377.232 48.152 378.672 47 380.832C45.416 383.424 45.56 386.88 47.288 390.048C48.584 392.496 50.888 394.656 54.056 395.952C52.04 393.792 53.48 390.48 55.784 390.48H97.112C100.28 390.48 103.016 392.784 103.016 396.384V408.48C103.016 411.36 99.992 413.808 97.4 413.808H45.128C42.248 413.808 39.512 411.504 39.512 408.768V385.152C44.696 379.248 49.592 373.2 53.912 367.008H99.704C105.032 367.008 110.216 365.568 113.816 362.4C116.84 359.808 118.712 356.064 118.712 351.168V341.808H124.904C126.056 341.808 127.064 340.944 127.064 339.792ZM99.128 328.704H68.456C68.744 325.68 69.032 319.344 69.176 316.752H94.808C96.968 316.752 99.128 319.344 99.128 321.504V328.704ZM99.128 348.864C99.128 351.888 96.824 354.336 93.08 354.336H61.256C62.84 350.448 64.712 345.696 65.864 341.808H99.128V348.864Z"/>
</mask>
<path d="M128.216 95.088C130.232 80.688 125.48 68.16 117.704 57.36C124.472 46.704 129.512 31.152 125.048 18.336C122.744 11.424 117.128 4.944 109.784 2.928C102.728 1.2 94.088 1.056 88.04 5.376C84.728 7.824 82.136 11.712 82.136 15.744C82.28 19.632 84.44 22.512 87.32 24.528C91.496 27.552 96.968 28.704 99.992 28.128C98.408 27.12 95.816 25.248 94.664 23.52C93.368 21.648 94.088 19.632 95.816 18.192C97.976 16.608 102.44 17.76 104.456 19.2C107.624 21.216 108.056 23.232 108.2 26.688C108.776 36.624 105.032 46.128 100.136 53.616V34.032C100.136 33.024 99.56 32.016 98.552 31.872C92.792 30.864 87.32 29.136 84.152 26.4C83.144 25.536 81.704 26.256 81.704 27.552V124.464C81.704 125.904 83 126.912 84.008 126.912H98.264C99.416 126.912 100.136 125.616 100.136 124.464V113.664C108.92 115.536 115.688 114.24 120.872 109.92C124.76 106.608 127.352 101.712 128.216 95.088ZM81.704 23.088C82.28 22.08 81.272 20.64 79.976 20.64H71.048C70.328 20.64 69.032 21.216 68.6 21.936C67.448 23.808 66.008 25.68 64.856 27.12C63.848 25.968 62.84 23.52 62.264 22.08C67.304 16.896 72.2 10.848 74.936 5.232C75.512 4.224 74.648 2.352 72.92 2.352H64.856C63.992 2.352 62.696 2.496 61.976 3.648C60.968 5.52001 59.528 7.968 58.088 9.55201C57.368 8.11201 56.792 5.952 56.504 4.656C56.36 3.648 55.064 2.352 54.056 2.352H42.392C40.664 2.352 39.656 3.936 40.088 5.088C41.96 14.16 46.424 26.4 49.88 35.04H33.752C36.056 29.568 38.504 22.08 39.08 16.464C39.368 13.44 38.504 10.56 36.92 8.4C34.904 5.808 31.88 4.08 27.848 4.08H12.872C9.99201 4.08 7.97601 5.232 6.82401 6.96C5.09601 9.264 4.95201 12.576 6.39201 15.168C7.68801 17.328 10.136 19.056 13.88 19.2C12.872 18.768 12.008 18.048 11.72 17.472C11.288 16.896 11.576 16.464 12.152 16.464H21.512C22.232 16.464 22.52 17.472 22.52 18.048C21.944 20.784 21.08 23.808 19.928 26.544C19.208 25.392 18.344 23.664 17.768 22.224C17.336 21.36 16.616 20.64 15.32 20.496H5.24001C3.94401 20.64 3.08001 21.936 3.51201 22.944C5.67201 29.136 8.69601 34.608 13.16 39.936C10.28 44.4 7.40001 48.288 3.51201 52.464C2.79201 53.328 3.22401 54.768 4.37601 54.768H18.92C20.216 55.056 21.656 54.624 22.664 53.76C24.248 52.176 25.544 50.16 26.984 47.712H56.216C57.224 49.44 59.24 52.32 60.104 53.472C60.68 54.336 61.976 54.768 62.696 54.768H77.384C79.256 54.768 79.544 52.608 78.968 52.032C75.944 48.144 72.776 43.536 70.184 38.928C74.936 34.032 78.824 28.704 81.704 23.088ZM77.096 74.352C77.096 70.176 75.224 66.144 72.2 63.12C69.032 59.952 64.568 57.792 59.816 57.792H36.92C33.896 57.792 31.736 59.232 30.584 61.248C29.144 63.84 29.288 67.296 30.872 70.032C32.168 72.48 34.616 74.496 38.072 74.64C37.208 73.776 36.632 72.912 36.488 72.192C36.344 71.328 36.632 70.608 37.784 70.464H52.904C55.928 70.464 57.368 72.336 57.512 74.496C57.8 76.944 56.36 79.536 53.48 79.536H31.88C29.144 79.536 26.984 77.376 26.984 75.216V59.952C26.984 58.656 25.976 57.792 24.824 57.792H10.712C9.41601 57.792 8.40801 58.944 8.40801 59.952V77.088C8.40801 82.272 10.136 85.872 12.584 88.176C15.608 90.912 19.784 91.92 23.816 91.92H57.656C64.568 91.92 70.04 89.76 73.352 85.728C75.8 82.848 77.096 78.96 77.096 74.352ZM78.968 117.984V110.064C78.968 108.624 77.816 107.328 76.232 107.616C73.928 108.048 70.76 108.48 67.304 108.912C68.888 105.024 70.328 101.136 71.336 97.68C71.48 96.96 71.192 95.808 69.896 95.808H54.488C53.624 95.808 52.616 96.24 52.184 97.248C50.744 102.288 48.728 106.896 46.28 111.792C44.12 112.08 41.96 112.368 40.232 112.368C37.496 107.904 35.336 102.144 34.184 97.536C33.896 96.528 33.32 95.808 31.736 95.808H16.04C14.888 95.808 14.168 97.392 14.6 98.544C16.328 103.728 18.488 109.056 20.792 113.664C16.04 114.24 10.568 114.384 5.81601 114.384C5.09601 114.384 3.80001 115.824 3.80001 116.4V125.04C3.80001 126.192 4.80801 127.344 5.81601 127.344C28.568 126.624 56.936 123.6 77.528 120.432C78.392 120.288 78.968 119.136 78.968 117.984ZM109.064 91.2C108.488 93.792 107.336 95.52 105.608 96.384C104.168 97.104 102.296 97.104 100.136 96.24V61.392C105.608 69.168 111.368 81.12 109.064 91.2Z" stroke="#0C0017" stroke-width="2" mask="url(#path-1-outside-1)"/>
<path d="M126.92 161.568V153.792C126.92 153.216 126.056 152.496 125.336 152.496H69.608C68.888 152.496 68.024 153.072 68.024 153.792V162C68.024 162.72 68.888 163.44 69.464 163.44H125.048C126.2 163.44 126.92 162.576 126.92 161.568ZM125.192 190.656V177.264C125.192 174.816 123.896 171.648 121.88 169.632C120.008 167.76 117.272 166.608 114.392 166.608H98.264C94.52 166.608 92.216 167.76 91.064 169.488C89.48 171.504 89.624 174.384 90.776 176.544C91.928 178.704 94.088 180.288 96.824 180.288C95.096 178.56 96.248 177.12 97.832 177.12H104.888C105.896 177.12 107.48 178.272 107.48 179.712V190.8C107.48 191.808 108.2 192.672 108.92 192.672H122.888C124.04 192.672 125.192 191.664 125.192 190.656ZM104.888 190.08C103.88 187.344 103.016 184.896 102.44 183.024C102.152 182.16 101.72 181.728 101 181.728H90.632C90.056 181.728 89.624 182.448 89.624 182.88C90.056 184.896 91.208 188.496 92.36 190.944C92.648 191.376 93.224 191.664 93.8 191.664H103.88C104.744 191.664 105.176 190.8 104.888 190.08ZM62.552 161.424V154.224C62.552 153.36 61.832 152.496 60.824 152.496H6.10401C5.09601 152.496 4.08801 153.216 4.08801 154.224V161.568C4.08801 162.72 4.80801 163.44 5.67201 163.44H60.392C61.544 163.44 62.552 162.432 62.552 161.424ZM41.816 190.512C41.096 188.064 40.088 185.184 39.512 183.168C39.224 182.16 38.504 181.728 37.784 181.728H28.28C27.56 181.728 26.984 182.736 27.128 183.456C27.704 185.616 28.424 187.92 29.72 190.368C30.008 191.232 30.872 191.664 31.448 191.664H40.664C41.528 191.664 42.104 191.232 41.816 190.512ZM127.784 206.496V198.864C127.784 198.144 127.208 197.568 126.344 197.568H76.952C76.376 195.984 75.368 193.824 74.648 192.672H85.592C86.456 192.672 87.176 191.664 87.176 190.512V168.336C87.176 167.616 86.312 166.608 85.592 166.608H71.48C70.76 166.608 70.04 167.184 70.04 168.048V189.072C68.024 188.064 63.272 187.632 61.112 188.64V177.696C61.112 173.952 59.672 171.072 57.224 169.2C55.064 167.472 51.896 166.608 48.296 166.608H34.76C30.872 166.608 28.568 167.904 27.56 169.776C26.264 171.792 26.552 174.528 27.704 176.688C28.856 179.136 31.304 181.008 33.752 180.432C32.168 178.848 32.888 177.12 34.184 177.12H41.816C42.824 177.12 43.544 177.984 43.544 179.28V191.232C43.544 192.384 44.264 192.672 45.128 192.672H51.32L48.44 195.264C49.736 194.832 51.32 194.688 52.616 194.976C53.912 195.408 55.064 196.128 55.496 197.568H38.792C35.912 197.568 33.608 198.864 32.312 200.736C30.584 203.04 30.44 206.064 31.448 208.512C32.456 210.528 34.328 212.4 37.352 212.688C36.2 211.824 35.912 210.528 36.2 209.52C36.488 208.656 37.352 208.08 38.504 208.08H43.832V214.416H28.28V199.44C28.28 198.288 27.416 197.568 26.552 197.568H10.28C9.70401 197.568 8.84001 198.288 8.84001 198.864V241.056C8.84001 252.72 7.11201 263.376 3.51201 274.464C2.93601 275.904 3.65601 276.768 4.80801 276.768H21.656C22.808 276.768 23.816 276.192 23.96 275.328C26.984 266.112 28.136 253.44 28.568 242.64H34.472V263.52C34.472 266.976 35.336 269.856 37.064 272.16C39.08 275.04 42.536 276.768 46.136 276.768H64.28C67.736 276.768 70.76 275.328 72.344 272.88C74.216 270.288 74.072 266.4 72.344 263.808C70.328 260.784 66.584 258.912 62.552 259.344C64.424 260.352 65.576 262.08 65.576 263.376C65.432 264.816 64.28 265.824 62.12 265.824H56.792C54.776 265.824 53.624 263.952 53.624 262.08V258.336H70.328C71.048 258.336 71.768 257.76 71.768 256.896V249.552C71.768 248.4 71.336 247.824 70.472 247.824H53.624V242.64H76.088V263.232C76.088 266.832 77.096 269.712 78.536 271.872C80.984 275.184 84.872 276.768 88.328 276.768H115.544C120.584 276.768 123.752 275.328 125.768 273.312C128.648 270.288 128.216 265.536 126.2 262.08C124.328 259.056 121.016 256.896 117.272 256.752C119.432 258.624 120.296 260.64 120.008 262.368C119.864 264.384 118.28 265.824 115.544 265.824H98.984C96.68 265.824 95.096 263.808 95.096 262.08V259.776H111.368C112.376 259.776 113.528 259.488 114.104 258.912C116.984 255.6 119.72 251.568 122.024 247.536C122.6 246.384 122.024 245.232 120.872 245.232H104.312C103.304 245.232 103.016 245.664 102.44 246.096C100.568 249.264 97.688 253.008 95.096 255.744V242.64H110.504C114.968 242.64 118.424 241.632 121.016 239.76C124.616 237.312 126.488 233.712 126.776 229.824C127.064 225.792 125.624 221.616 122.456 218.736C120.008 216.432 116.408 214.416 111.8 214.416H93.944V208.08H126.344C127.208 208.08 127.784 207.36 127.784 206.496ZM24.104 191.232V167.904C24.104 167.328 23.528 166.608 22.952 166.608H7.83201C6.82401 166.608 6.24801 167.04 6.24801 167.904V191.232C6.24801 192.096 6.82401 192.672 7.54401 192.672H22.952C23.528 192.672 24.104 191.952 24.104 191.232ZM107.048 230.4C106.472 231.408 105.176 231.84 103.736 231.84H93.944V225.216H103.304C104.888 225.216 106.328 225.504 106.904 226.224C107.912 227.376 108.056 229.104 107.048 230.4ZM75.512 214.416H61.976V208.08H75.512V214.416ZM75.512 231.84H61.976V225.216H75.512V231.84ZM43.688 231.84H28.28V225.216H43.688V231.84Z" stroke="#0C0017" stroke-width="2" mask="url(#path-1-outside-1)"/>
<path d="M127.064 339.792V330.72C127.064 329.424 126.056 328.704 124.904 328.704H118.712V320.496C118.712 315.456 117.272 310.704 113.672 307.536C111.08 305.232 107.192 303.792 101.864 303.792H20.36C16.904 303.792 14.6 305.088 13.16 307.104C11.576 309.264 11.288 312.432 12.008 315.456C12.872 318.48 14.744 321.504 17.624 323.664C16.472 322.08 16.328 320.208 17.048 318.768C17.48 317.616 18.488 316.752 19.928 316.752H49.016C49.016 320.064 48.44 325.536 47.864 328.704H5.52801C4.52001 328.704 3.51201 329.568 3.51201 330.576V339.504C3.51201 340.8 4.52001 341.808 5.52801 341.808H45.128C43.976 345.984 41.528 350.592 39.08 354.336H13.592C12.44 354.336 11.576 355.2 11.576 356.064V364.992C11.576 366.288 12.584 367.008 13.592 367.008H30.152C21.656 376.8 12.152 384.72 2.21601 392.64C1.06401 393.504 2.36001 395.808 3.51201 395.808H19.496V408.48C19.496 413.808 20.936 417.84 23.096 420.72C26.264 424.896 31.16 426.768 35.912 426.768H103.592C109.496 426.768 114.536 424.896 117.992 421.584C121.016 418.56 122.744 414.384 122.744 409.344V396.96C122.744 390.912 121.448 385.728 117.992 382.272C114.968 379.104 110.216 377.232 103.448 377.232H53.912C50.6 377.232 48.152 378.672 47 380.832C45.416 383.424 45.56 386.88 47.288 390.048C48.584 392.496 50.888 394.656 54.056 395.952C52.04 393.792 53.48 390.48 55.784 390.48H97.112C100.28 390.48 103.016 392.784 103.016 396.384V408.48C103.016 411.36 99.992 413.808 97.4 413.808H45.128C42.248 413.808 39.512 411.504 39.512 408.768V385.152C44.696 379.248 49.592 373.2 53.912 367.008H99.704C105.032 367.008 110.216 365.568 113.816 362.4C116.84 359.808 118.712 356.064 118.712 351.168V341.808H124.904C126.056 341.808 127.064 340.944 127.064 339.792ZM99.128 328.704H68.456C68.744 325.68 69.032 319.344 69.176 316.752H94.808C96.968 316.752 99.128 319.344 99.128 321.504V328.704ZM99.128 348.864C99.128 351.888 96.824 354.336 93.08 354.336H61.256C62.84 350.448 64.712 345.696 65.864 341.808H99.128V348.864Z" stroke="#0C0017" stroke-width="2" mask="url(#path-1-outside-1)"/>
</svg>
